<svg width="43" height="43" viewBox="0 0 43 43" fill="none" xmlns="http://www.w3.org/2000/svg">
<g filter="url(#filter0_d_314_1371)">
<rect x="4" width="35" height="35" rx="3" fill="#FFE600" shape-rendering="crispEdges"/>
<path d="M22.9584 26.25C22.9584 27.0554 22.3055 27.7083 21.5001 27.7083C20.6947 27.7083 20.0417 27.0554 20.0417 26.25C20.0417 25.4445 20.6947 24.7916 21.5001 24.7916C22.3055 24.7916 22.9584 25.4445 22.9584 26.25Z" fill="black"/>
<path fill-rule="evenodd" clip-rule="evenodd" d="M21.4999 2.91663C22.0295 2.91663 22.5175 3.20376 22.7747 3.66673L37.3581 29.9167C37.609 30.3684 37.6022 30.9192 37.3401 31.3645C37.0781 31.8099 36.6 32.0833 36.0833 32.0833H6.91659C6.39987 32.0833 5.92173 31.8099 5.65969 31.3645C5.39765 30.9192 5.39083 30.3684 5.64177 29.9167L20.2251 3.66673C20.4823 3.20376 20.9703 2.91663 21.4999 2.91663ZM9.39504 29.1666H33.6048L21.4999 7.37785L9.39504 29.1666ZM21.4999 13.125C22.3053 13.125 22.9583 13.7779 22.9583 14.5833V20.4166C22.9583 21.222 22.3053 21.875 21.4999 21.875C20.6945 21.875 20.0416 21.222 20.0416 20.4166V14.5833C20.0416 13.7779 20.6945 13.125 21.4999 13.125Z" fill="black"/>
</g>
<defs>
<filter id="filter0_d_314_1371" x="0" y="0" width="43" height="43" filterUnits="userSpaceOnUse" color-interpolation-filters="sRGB">
<feFlood flood-opacity="0" result="BackgroundImageFix"/>
<feColorMatrix in="SourceAlpha" type="matrix" values="0 0 0 0 0 0 0 0 0 0 0 0 0 0 0 0 0 0 127 0" result="hardAlpha"/>
<feOffset dy="4"/>
<feGaussianBlur stdDeviation="2"/>
<feComposite in2="hardAlpha" operator="out"/>
<feColorMatrix type="matrix" values="0 0 0 0 0 0 0 0 0 0 0 0 0 0 0 0 0 0 0.25 0"/>
<feBlend mode="normal" in2="BackgroundImageFix" result="effect1_dropShadow_314_1371"/>
<feBlend mode="normal" in="SourceGraphic" in2="effect1_dropShadow_314_1371" result="shape"/>
</filter>
</defs>
</svg>
