<svg width="24" height="23" viewBox="0 0 24 23" fill="none" xmlns="http://www.w3.org/2000/svg">
<path d="M23.68 8.01C23.4926 7.82375 23.2392 7.71921 22.975 7.71921C22.7108 7.71921 22.4574 7.82375 22.27 8.01C20.43 10.01 19.5 11.38 19.5 12.19V19.69C19.5 19.9552 19.3946 20.2096 19.2071 20.3971C19.0196 20.5846 18.7652 20.69 18.5 20.69C18.2348 20.69 17.9804 20.5846 17.7929 20.3971C17.6054 20.2096 17.5 19.9552 17.5 19.69V6.24C17.4974 5.57777 17.2331 4.94341 16.7649 4.47514C16.2966 4.00687 15.6622 3.74263 15 3.74H14.75C14.6837 3.74 14.6201 3.71366 14.5732 3.66678C14.5263 3.61989 14.5 3.5563 14.5 3.49V1.75C14.5 1.28587 14.3156 0.840752 13.9874 0.512563C13.6592 0.184374 13.2141 0 12.75 0H1.75C1.28587 0 0.840752 0.184374 0.512563 0.512563C0.184374 0.840752 0 1.28587 0 1.75L0 20.75C0.0026251 21.2133 0.187842 21.6569 0.515464 21.9845C0.843085 22.3122 1.28668 22.4974 1.75 22.5H12.75C13.2141 22.5 13.6592 22.3156 13.9874 21.9874C14.3156 21.6592 14.5 21.2141 14.5 20.75V5.99C14.5 5.9237 14.5263 5.86011 14.5732 5.81322C14.6201 5.76634 14.6837 5.74 14.75 5.74H15C15.1318 5.74256 15.2575 5.79606 15.3507 5.88928C15.4439 5.9825 15.4974 6.10819 15.5 6.24V19.74C15.5 20.5357 15.8161 21.2987 16.3787 21.8613C16.9413 22.4239 17.7044 22.74 18.5 22.74C19.2956 22.74 20.0587 22.4239 20.6213 21.8613C21.1839 21.2987 21.5 20.5357 21.5 19.74V17.52C21.499 17.4723 21.5116 17.4253 21.5364 17.3845C21.5612 17.3438 21.5971 17.311 21.64 17.29L22.64 16.78C22.8891 16.6557 23.0986 16.4645 23.2452 16.2278C23.3918 15.9912 23.4696 15.7184 23.47 15.44V14.24C23.47 13.8422 23.312 13.4606 23.0307 13.1793C22.7494 12.898 22.3678 12.74 21.97 12.74H21.71C21.6454 12.7401 21.5833 12.7151 21.5367 12.6703C21.4901 12.6256 21.4626 12.5646 21.46 12.5V12.37C22.0706 11.3025 22.8243 10.3234 23.7 9.46C23.7971 9.36523 23.8738 9.2517 23.9256 9.12633C23.9774 9.00095 24.0032 8.86635 24.0013 8.73071C23.9994 8.59506 23.97 8.46122 23.9147 8.33732C23.8595 8.21342 23.7796 8.10206 23.68 8.01ZM9.75 12.01H7.25C7.05109 12.01 6.86032 12.089 6.71967 12.2297C6.57902 12.3703 6.5 12.5611 6.5 12.76V14.51H8.25C8.44891 14.51 8.63968 14.589 8.78033 14.7297C8.92098 14.8703 9 15.0611 9 15.26C9 15.4589 8.92098 15.6497 8.78033 15.7903C8.63968 15.931 8.44891 16.01 8.25 16.01H6.5V19.26C6.5 19.4589 6.42098 19.6497 6.28033 19.7903C6.13968 19.931 5.94891 20.01 5.75 20.01C5.55109 20.01 5.36032 19.931 5.21967 19.7903C5.07902 19.6497 5 19.4589 5 19.26V12.76C5 12.1633 5.23705 11.591 5.65901 11.169C6.08097 10.7471 6.65326 10.51 7.25 10.51H9.75C9.94891 10.51 10.1397 10.589 10.2803 10.7297C10.421 10.8703 10.5 11.0611 10.5 11.26C10.5 11.4589 10.421 11.6497 10.2803 11.7903C10.1397 11.931 9.94891 12.01 9.75 12.01ZM11.75 6.25C11.75 6.38261 11.6973 6.50979 11.6036 6.60355C11.5098 6.69732 11.3826 6.75 11.25 6.75H3.25C3.11739 6.75 2.99021 6.69732 2.89645 6.60355C2.80268 6.50979 2.75 6.38261 2.75 6.25V3.25C2.75 3.11739 2.80268 2.99021 2.89645 2.89645C2.99021 2.80268 3.11739 2.75 3.25 2.75H11.25C11.3818 2.75256 11.5075 2.80606 11.6007 2.89928C11.6939 2.9925 11.7474 3.11819 11.75 3.25V6.25Z" fill="black"/>
</svg>
