<svg width="38" height="38" viewBox="0 0 38 38" fill="none" xmlns="http://www.w3.org/2000/svg">
<path d="M18.75 5.33542L4.16667 17.0021V33.3333H14.5833V25H22.9167V33.3333H33.3333V18.0042C33.3334 17.6917 33.2633 17.3833 33.1281 17.1016C32.9928 16.82 32.796 16.5724 32.5521 16.3771L18.75 5.33542ZM18.75 0L35.1542 13.125C35.8857 13.7102 36.4763 14.4523 36.8823 15.2965C37.2884 16.1407 37.4995 17.0653 37.5 18.0021V33.3333C37.5 34.4384 37.061 35.4982 36.2796 36.2796C35.4982 37.061 34.4384 37.5 33.3333 37.5H4.16667C3.0616 37.5 2.00179 37.061 1.22039 36.2796C0.438987 35.4982 0 34.4384 0 33.3333V17.0021C7.79118e-05 16.3776 0.140539 15.7611 0.410996 15.1981C0.681454 14.6352 1.07499 14.1403 1.5625 13.75L18.75 0Z" fill="black"/>
</svg>
