<svg width="24" height="24" viewBox="0 0 24 24" fill="none" xmlns="http://www.w3.org/2000/svg">
<path d="M5.616 21C5.15533 21 4.771 20.846 4.463 20.538C4.155 20.23 4.00067 19.8457 4 19.385V8.615C4 8.155 4.15433 7.771 4.463 7.463C4.77167 7.155 5.156 7.00067 5.616 7H8C8 5.886 8.38833 4.941 9.165 4.165C9.941 3.38833 10.886 3 12 3C13.114 3 14.0593 3.38833 14.836 4.165C15.6127 4.94167 16.0007 5.88667 16 7H18.385C18.845 7 19.229 7.15433 19.537 7.463C19.845 7.77167 19.9993 8.156 20 8.616V19.385C20 19.845 19.8457 20.2293 19.537 20.538C19.2283 20.8467 18.8443 21.0007 18.385 21H5.616ZM9 7H15C15 6.16667 14.7083 5.45833 14.125 4.875C13.5417 4.29167 12.8333 4 12 4C11.1667 4 10.4583 4.29167 9.875 4.875C9.29167 5.45833 9 6.16667 9 7ZM11.994 13C13.0227 13 13.9377 12.643 14.739 11.929C15.5403 11.215 15.939 10.3943 15.935 9.467C15.935 9.33767 15.8883 9.22767 15.795 9.137C15.7003 9.04567 15.582 9 15.44 9C15.322 9 15.216 9.04633 15.122 9.139C15.0287 9.231 14.966 9.34367 14.934 9.477C14.8273 10.2003 14.4947 10.8017 13.936 11.281C13.3773 11.7603 12.73 12 11.994 12C11.258 12 10.6097 11.76 10.049 11.28C9.48833 10.8013 9.15667 10.2003 9.054 9.477C9.022 9.33967 8.961 9.22567 8.871 9.135C8.78167 9.045 8.678 9 8.56 9C8.41733 9 8.29833 9.04533 8.203 9.136C8.10767 9.22733 8.06 9.33767 8.06 9.467C8.06 10.3937 8.45867 11.2143 9.256 11.929C10.0533 12.643 10.966 13 11.994 13Z" fill="black"/>
</svg>
