<svg width="49" height="29" viewBox="0 0 49 29" fill="none" xmlns="http://www.w3.org/2000/svg">
<path fill-rule="evenodd" clip-rule="evenodd" d="M14.5 14.5C12.5772 14.5 10.7331 13.7362 9.37348 12.3765C8.01384 11.0169 7.25 9.17282 7.25 7.25C7.25 5.32718 8.01384 3.48311 9.37348 2.12348C10.7331 0.763837 12.5772 0 14.5 0C16.4228 0 18.2669 0.763837 19.6265 2.12348C20.9862 3.48311 21.75 5.32718 21.75 7.25C21.75 9.17282 20.9862 11.0169 19.6265 12.3765C18.2669 13.7362 16.4228 14.5 14.5 14.5ZM33.8333 14.5C31.9105 14.5 30.0664 13.7362 28.7068 12.3765C27.3472 11.0169 26.5833 9.17282 26.5833 7.25C26.5833 5.32718 27.3472 3.48311 28.7068 2.12348C30.0664 0.763837 31.9105 0 33.8333 0C35.7561 0 37.6002 0.763837 38.9599 2.12348C40.3195 3.48311 41.0833 5.32718 41.0833 7.25C41.0833 9.17282 40.3195 11.0169 38.9599 12.3765C37.6002 13.7362 35.7561 14.5 33.8333 14.5ZM14.5 19.3333C17.2433 19.3301 19.9558 19.9122 22.4562 21.0407C24.9567 22.1692 27.1876 23.8183 29 25.8777V29H0V25.8777C1.81239 23.8183 4.04329 22.1692 6.54375 21.0407C9.04421 19.9122 11.7567 19.3301 14.5 19.3333ZM33.8333 29V24.0507L32.625 22.6804C31.7031 21.634 30.6924 20.6694 29.6042 19.7973C30.9925 19.4876 32.4108 19.3319 33.8333 19.3333C36.5767 19.3301 39.2891 19.9122 41.7896 21.0407C44.29 22.1692 46.5209 23.8183 48.3333 25.8777V29H33.8333Z" fill="black"/>
</svg>
