<svg width="25" height="25" viewBox="0 0 25 25" fill="none" xmlns="http://www.w3.org/2000/svg">
<g opacity="0.5">
<path d="M1.25159 15.8343C1.25641 15.7108 1.29964 15.5919 1.37527 15.4941C1.45089 15.3964 1.55513 15.3247 1.67346 15.289L6.39065 13.6499L6.52034 13.6187C6.82346 13.5718 7.13284 13.7202 7.24846 13.9859C7.38127 14.289 7.21252 14.6312 6.8719 14.7499L3.70315 15.8499L12.5578 19.0593L21.3016 15.8202L18.15 14.7515L18.0313 14.6968C17.7703 14.5499 17.6531 14.2562 17.7656 13.9906C17.8813 13.7249 18.1875 13.5734 18.4922 13.6187L18.6219 13.6499L23.325 15.2468C23.5781 15.3327 23.7469 15.5484 23.7516 15.789C23.749 15.9118 23.7084 16.0308 23.6354 16.1296C23.5623 16.2284 23.4605 16.3021 23.3438 16.3406L12.8172 20.2406C12.6551 20.3008 12.4769 20.3019 12.3141 20.2437L1.66409 16.3843C1.54677 16.3467 1.44404 16.2736 1.37014 16.1751C1.29623 16.0765 1.2548 15.9574 1.25159 15.8343Z" fill="black"/>
<path d="M1.3 18.9108C1.42031 18.6452 1.73125 18.503 2.03437 18.5515L2.16406 18.5858L12.5578 22.353L22.8344 18.5468L22.9625 18.5124C23.2656 18.4593 23.5766 18.6015 23.7 18.864C23.8234 19.128 23.7156 19.4249 23.4609 19.578L23.3437 19.6343L12.8172 23.5343C12.6551 23.5945 12.4769 23.5956 12.3141 23.5374L1.66406 19.678L1.54687 19.6233C1.28906 19.4702 1.17968 19.1765 1.3 18.9108ZM11.1312 7.49365C11.125 7.3097 11.1559 7.12638 11.222 6.95461C11.2881 6.78284 11.3881 6.62613 11.516 6.4938C11.644 6.36148 11.7972 6.25625 11.9667 6.18439C12.1361 6.11252 12.3183 6.07549 12.5023 6.07549C12.6864 6.07549 12.8686 6.11252 13.038 6.18439C13.2075 6.25625 13.3607 6.36148 13.4886 6.4938C13.6166 6.62613 13.7166 6.78284 13.7827 6.95461C13.8488 7.12638 13.8796 7.3097 13.8734 7.49365C13.8614 7.84928 13.7117 8.18633 13.4559 8.43365C13.2001 8.68098 12.8582 8.81923 12.5023 8.81923C12.1465 8.81923 11.8046 8.68098 11.5488 8.43365C11.293 8.18633 11.1433 7.84928 11.1312 7.49365ZM6.42812 7.49365C6.42812 5.88267 7.06808 4.33767 8.20722 3.19853C9.34636 2.05939 10.8914 1.41943 12.5023 1.41943C14.1133 1.41943 15.6583 2.05939 16.7975 3.19853C17.9366 4.33767 18.5766 5.88267 18.5766 7.49365C18.5766 13.2546 13.0297 16.489 12.7953 16.6249C12.706 16.6756 12.605 16.7022 12.5023 16.7022C12.3996 16.7022 12.2987 16.6756 12.2094 16.6249C11.975 16.489 6.42812 13.2546 6.42812 7.49365ZM7.60468 7.49365C7.60468 11.8546 11.4062 14.6937 12.5031 15.4202C13.5969 14.6937 17.4 11.8562 17.4 7.49365C17.4 6.19451 16.8839 4.94857 15.9653 4.02993C15.0466 3.1113 13.8007 2.59521 12.5016 2.59521C11.2024 2.59521 9.95648 3.1113 9.03784 4.02993C8.11921 4.94857 7.60468 6.19451 7.60468 7.49365Z" fill="black"/>
</g>
</svg>
