<svg width="21" height="21" viewBox="0 0 21 21" fill="none" xmlns="http://www.w3.org/2000/svg">
<path fill-rule="evenodd" clip-rule="evenodd" d="M5.91164 13.4362L0.307474 19.0404C0.110496 19.2375 -0.00011103 19.5048 -1.33514e-05 19.7834C8.43267e-05 20.0621 0.110878 20.3293 0.307995 20.5263C0.505111 20.7233 0.772404 20.8339 1.05107 20.8338C1.32974 20.8337 1.59695 20.7229 1.79393 20.5258L7.3981 14.9216C9.0734 16.2192 11.1801 16.8298 13.2896 16.6293C15.3992 16.4287 17.3531 15.4321 18.7538 13.842C20.1546 12.252 20.8971 10.1881 20.8301 8.0701C20.7632 5.95211 19.8919 3.93917 18.3935 2.44078C16.8951 0.942391 14.8822 0.0711018 12.7642 0.00416284C10.6462 -0.0627761 8.58227 0.679663 6.99225 2.08044C5.40223 3.48123 4.40557 5.43513 4.20502 7.54466C4.00448 9.65419 4.6151 11.7609 5.91268 13.4362M12.5002 14.5831C10.8426 14.5831 9.25287 13.9246 8.08076 12.7525C6.90866 11.5804 6.25018 9.99067 6.25018 8.33307C6.25018 6.67547 6.90866 5.08575 8.08076 3.91365C9.25287 2.74155 10.8426 2.08307 12.5002 2.08307C14.1578 2.08307 15.7475 2.74155 16.9196 3.91365C18.0917 5.08575 18.7502 6.67547 18.7502 8.33307C18.7502 9.99067 18.0917 11.5804 16.9196 12.7525C15.7475 13.9246 14.1578 14.5831 12.5002 14.5831Z" fill="black"/>
</svg>
