<svg width="51" height="51" viewBox="0 0 51 51" fill="none" xmlns="http://www.w3.org/2000/svg">
<path d="M22.95 45.7419C19.3187 45.2896 15.8772 43.864 12.9897 41.616L9.2718 45.3339L5.6661 41.7282L9.384 38.0103C7.13601 35.1228 5.71042 31.6813 5.2581 28.05H0V22.95H5.2581C5.71042 19.3187 7.13601 15.8772 9.384 12.9897L5.6661 9.2718L9.2718 5.6661L12.9897 9.384C15.8772 7.13601 19.3187 5.71042 22.95 5.2581V0H28.05V5.2581C31.6813 5.71042 35.1228 7.13601 38.0103 9.384L41.7282 5.6661L45.3339 9.2718L41.616 12.9897C43.864 15.8772 45.2896 19.3187 45.7419 22.95H51V28.05H45.7419C45.2896 31.6813 43.864 35.1228 41.616 38.0103L45.3339 41.7282L41.7282 45.3339L38.0103 41.616C35.1228 43.864 31.6813 45.2896 28.05 45.7419V51H22.95V45.7419ZM25.5 38.25C28.8815 38.25 32.1245 36.9067 34.5156 34.5156C36.9067 32.1245 38.25 28.8815 38.25 25.5C38.25 22.1185 36.9067 18.8755 34.5156 16.4844C32.1245 14.0933 28.8815 12.75 25.5 12.75C22.1185 12.75 18.8755 14.0933 16.4844 16.4844C14.0933 18.8755 12.75 22.1185 12.75 25.5C12.75 28.8815 14.0933 32.1245 16.4844 34.5156C18.8755 36.9067 22.1185 38.25 25.5 38.25Z" fill="black"/>
</svg>
