<svg width="58" height="58" viewBox="0 0 58 58" fill="none" xmlns="http://www.w3.org/2000/svg">
<path d="M29 46.4C24.3852 46.4 19.9595 44.5668 16.6963 41.3037C13.4332 38.0405 11.6 33.6148 11.6 29C11.6 24.3852 13.4332 19.9595 16.6963 16.6963C19.9595 13.4332 24.3852 11.6 29 11.6C33.6148 11.6 38.0405 13.4332 41.3037 16.6963C44.5668 19.9595 46.4 24.3852 46.4 29C46.4 33.6148 44.5668 38.0405 41.3037 41.3037C38.0405 44.5668 33.6148 46.4 29 46.4ZM29 40.6C32.0765 40.6 35.027 39.3779 37.2024 37.2024C39.3779 35.027 40.6 32.0765 40.6 29C40.6 25.9235 39.3779 22.973 37.2024 20.7976C35.027 18.6221 32.0765 17.4 29 17.4C25.9235 17.4 22.973 18.6221 20.7976 20.7976C18.6221 22.973 17.4 25.9235 17.4 29C17.4 32.0765 18.6221 35.027 20.7976 37.2024C22.973 39.3779 25.9235 40.6 29 40.6ZM26.1 0H31.9V8.7H26.1V0ZM0 26.1H8.7V31.9H0V26.1ZM49.3 26.1H58V31.9H49.3V26.1ZM26.1 49.3H31.9V58H26.1V49.3ZM48.2009 5.8L52.3044 9.9006L46.1506 16.0544L42.05 11.948L48.2009 5.8ZM42.05 44.7006L46.1506 40.6L52.3044 46.7509L48.2009 50.8544L42.05 44.7006ZM11.9509 40.6L16.0544 44.7006L9.9006 50.8544L5.8 46.748L11.9509 40.6ZM5.8 9.9006L9.9006 5.8L16.0544 11.9509L11.948 16.0544L5.8 9.9006Z" fill="black"/>
</svg>
