<svg width="72" height="72" viewBox="0 0 72 72" fill="none" xmlns="http://www.w3.org/2000/svg">
<path fill-rule="evenodd" clip-rule="evenodd" d="M62.9745 37.4129C62.2331 37.3746 61.6667 36.7424 61.6667 36C61.6667 35.2576 62.2331 34.6254 62.9745 34.5871L65.8151 34.4406C66.7223 34.3939 67.5 35.0916 67.5 36C67.5 36.9084 66.7223 37.6061 65.8151 37.5593L62.9745 37.4129ZM58.2308 23.163C58.6026 23.8055 59.4099 24.0714 60.071 23.7339L62.6001 22.4427C63.4115 22.0284 63.7361 21.0299 63.2797 20.2413C62.8233 19.4527 61.7987 19.2407 61.035 19.7377L58.655 21.2864C58.0329 21.6913 57.859 22.5206 58.2308 23.163ZM48.837 13.7692C49.4794 14.141 50.3087 13.9671 50.7136 13.345L52.2623 10.965C52.7593 10.2013 52.5473 9.17666 51.7587 8.7203C50.9701 8.26394 49.9716 8.58845 49.5573 9.39995L48.2661 11.929C47.9286 12.5901 48.1945 13.3974 48.837 13.7692ZM36 10.3333C36.7424 10.3333 37.3746 9.76687 37.4129 9.02547L37.5593 6.18491C37.6061 5.27773 36.9084 4.5 36 4.5C35.0916 4.5 34.3939 5.27773 34.4406 6.18491L34.5871 9.02546C34.6254 9.76687 35.2576 10.3333 36 10.3333ZM23.163 13.7692C23.8055 13.3974 24.0714 12.5901 23.7339 11.929L22.4427 9.39995C22.0284 8.58846 21.0299 8.26394 20.2413 8.7203C19.4527 9.17666 19.2407 10.2013 19.7377 10.965L21.2864 13.345C21.6913 13.9671 22.5206 14.141 23.163 13.7692ZM13.7692 23.163C14.141 22.5206 13.9671 21.6913 13.345 21.2864L10.965 19.7377C10.2013 19.2407 9.17666 19.4527 8.7203 20.2413C8.26394 21.0299 8.58845 22.0284 9.39995 22.4427L11.929 23.7339C12.5901 24.0714 13.3974 23.8055 13.7692 23.163ZM9.02547 34.5871C9.76687 34.6254 10.3333 35.2576 10.3333 36C10.3333 36.7424 9.76687 37.3746 9.02546 37.4129L6.18491 37.5593C5.27773 37.6061 4.5 36.9084 4.5 36C4.5 35.0916 5.27773 34.3939 6.18491 34.4407L9.02547 34.5871ZM13.7692 48.837C13.3974 48.1945 12.5901 47.9286 11.929 48.2661L9.39995 49.5573C8.58846 49.9716 8.26394 50.9701 8.7203 51.7587C9.17666 52.5473 10.2013 52.7593 10.965 52.2623L13.345 50.7136C13.9671 50.3087 14.141 49.4794 13.7692 48.837ZM23.163 58.2308C22.5206 57.859 21.6913 58.0329 21.2864 58.655L19.7377 61.035C19.2407 61.7987 19.4527 62.8233 20.2413 63.2797C21.0299 63.7361 22.0284 63.4115 22.4427 62.6001L23.7339 60.071C24.0714 59.4099 23.8055 58.6026 23.163 58.2308ZM36 61.6667C35.2576 61.6667 34.6254 62.2331 34.5871 62.9745L34.4407 65.8151C34.3939 66.7223 35.0916 67.5 36 67.5C36.9084 67.5 37.6061 66.7223 37.5594 65.8151L37.4129 62.9745C37.3746 62.2331 36.7424 61.6667 36 61.6667ZM48.837 58.2308C48.1945 58.6026 47.9286 59.4099 48.2661 60.071L49.5573 62.6001C49.9716 63.4115 50.9701 63.7361 51.7587 63.2797C52.5473 62.8233 52.7593 61.7987 52.2623 61.035L50.7136 58.655C50.3087 58.0329 49.4794 57.859 48.837 58.2308ZM58.2308 48.837C57.859 49.4794 58.0329 50.3087 58.655 50.7136L61.035 52.2623C61.7987 52.7593 62.8233 52.5473 63.2797 51.7587C63.7361 50.9701 63.4115 49.9716 62.6001 49.5573L60.071 48.2661C59.4099 47.9286 58.6026 48.1945 58.2308 48.837Z" fill="#FFD400"/>
<path d="M57.5834 36C57.5834 47.9201 47.9202 57.5833 36.0001 57.5833C24.0799 57.5833 14.4167 47.9201 14.4167 36C14.4167 24.0798 24.0799 14.4166 36.0001 14.4166C47.9202 14.4166 57.5834 24.0798 57.5834 36Z" fill="#FFD400"/>
</svg>
