<svg width="24" height="24" viewBox="0 0 24 24" fill="none" xmlns="http://www.w3.org/2000/svg">
<path d="M19.8615 10.9077L20.4615 18.1538H17.3846L17.9846 10.9077C17.7976 10.7652 17.6461 10.5813 17.542 10.3704C17.4379 10.1596 17.384 9.92746 17.3846 9.69231V8.92308H20.4615V9.69231C20.4615 10.1846 20.2308 10.6308 19.8615 10.9077ZM15.2462 10.9077L15.8462 18.1538H12.7692L13.3692 10.9077C13.1822 10.7652 13.0307 10.5813 12.9266 10.3704C12.8225 10.1596 12.7686 9.92746 12.7692 9.69231V8.92308H15.8462V9.69231C15.8462 10.1846 15.6154 10.6308 15.2462 10.9077ZM10.6308 10.9077L11.2308 18.1538H8.15385L8.75385 10.9077C8.5668 10.7652 8.41529 10.5813 8.3112 10.3704C8.2071 10.1596 8.15324 9.92746 8.15385 9.69231V8.92308H11.2308V9.69231C11.2308 10.1846 11 10.6308 10.6308 10.9077ZM6.01538 10.9077L6.61538 18.1538H3.53846L4.13846 10.9077C3.95141 10.7652 3.79991 10.5813 3.69581 10.3704C3.59172 10.1596 3.53786 9.92746 3.53846 9.69231V8.92308H6.61538V9.69231C6.61538 10.1846 6.38462 10.6308 6.01538 10.9077ZM12 2L22 5.84615V8.15385H2V5.84615L12 2ZM2.76923 18.9231H21.2308L22 20.4615V22H2V20.4615L2.76923 18.9231Z" fill="black"/>
</svg>
