<svg width="66" height="61" viewBox="0 0 66 61" fill="none" xmlns="http://www.w3.org/2000/svg">
<path d="M47.6317 27.1819H43.5195C42.7554 27.1819 42.0789 27.6755 41.8456 28.4031L38.0136 40.357C37.65 41.4914 38.4963 42.6514 39.6876 42.6514H41.7863C42.4572 42.6514 42.9911 43.2135 42.9566 43.8835L42.3069 56.5027C42.2907 56.8176 42.7152 56.9324 42.8598 56.6522L51.8756 39.1849C52.4794 38.015 51.6301 36.6209 50.3135 36.6209H48.5586C47.7594 36.6209 47.1947 35.8385 47.4464 35.08L49.3001 29.4933C49.6776 28.3555 48.8305 27.1819 47.6317 27.1819Z" fill="#FFD400"/>
<path d="M52.84 41.5495L54.0472 39.2107C55.1144 37.1431 53.6135 34.6794 51.2867 34.6794H49.6249L51.4015 29.3252C52.0687 27.3144 50.5717 25.2404 48.4531 25.2404H43.087C41.7366 25.2404 40.541 26.1127 40.1287 27.3986L35.9167 40.5382C35.8079 40.8774 35.7604 41.2179 35.7667 41.5495L14.7559 41.5495C6.60645 41.5495 0 34.9431 0 26.7936C0 18.6442 6.60645 12.0377 14.7559 12.0377C16.523 12.0377 18.2175 12.3483 19.7878 12.9179C22.8861 5.33955 30.3323 0 39.0255 0C50.4991 0 59.8003 9.30118 59.8003 20.7748C59.8003 21.2802 59.7822 21.7814 59.7468 22.2778C63.2164 23.8754 65.625 27.3831 65.625 31.4534C65.625 37.0293 61.1048 41.5495 55.5288 41.5495H52.84Z" fill="#767070"/>
<path d="M35.4101 57.4002L33.395 53.1989L31.3796 57.4008C31.1797 57.7509 31.0652 58.1579 31.0652 58.5921C31.0652 59.9027 32.1083 60.9651 33.395 60.9651C34.6818 60.9651 35.7249 59.9027 35.7249 58.5921C35.7249 58.1576 35.6103 57.7504 35.4101 57.4002Z" fill="#64D2FF"/>
<path d="M28.4208 49.6346L26.4054 45.4326L24.3902 49.634C24.1901 49.9842 24.0755 50.3914 24.0755 50.8258C24.0755 52.1364 25.1186 53.1989 26.4054 53.1989C27.6921 53.1989 28.7352 52.1364 28.7352 50.8258C28.7352 50.3916 28.6207 49.9847 28.4208 49.6346Z" fill="#64D2FF"/>
<path d="M21.4311 57.4006L19.4158 53.1989L17.4006 57.4004C17.2005 57.7506 17.0859 58.1577 17.0859 58.5921C17.0859 59.9027 18.129 60.9651 19.4158 60.9651C20.7025 60.9651 21.7456 59.9027 21.7456 58.5921C21.7456 58.1578 21.6311 57.7508 21.4311 57.4006Z" fill="#64D2FF"/>
<path d="M14.4413 49.6342L12.4261 45.4326L10.4107 49.6344C10.2107 49.9845 10.0962 50.3916 10.0962 50.8259C10.0962 52.1364 11.1393 53.1989 12.4261 53.1989C13.7128 53.1989 14.756 52.1364 14.756 50.8259C14.756 50.3915 14.6414 49.9844 14.4413 49.6342Z" fill="#64D2FF"/>
</svg>
