<svg width="24" height="24" viewBox="0 0 24 24" fill="none" xmlns="http://www.w3.org/2000/svg">
<path d="M20.8 4.80001V17.6C20.8 19.36 19.36 20.8 17.6 20.8H6.4C4.64 20.8 3.2 19.36 3.2 17.6V4.80001C3.2 3.04001 4.64 1.60001 6.4 1.60001H17.6C19.36 1.60001 20.8 3.04001 20.8 4.80001ZM14.4 16.8C14.4 17.68 15.12 18.4 16 18.4C16.88 18.4 17.6 17.68 17.6 16.8C17.6 15.92 16.88 15.2 16 15.2C15.12 15.2 14.4 15.92 14.4 16.8ZM9.6 16.8C9.6 15.92 8.88 15.2 8 15.2C7.12 15.2 6.4 15.92 6.4 16.8C6.4 17.68 7.12 18.4 8 18.4C8.88 18.4 9.6 17.68 9.6 16.8ZM4.8 7.20001L4.816 12C4.816 12.448 5.184 12.8 5.616 12.8H10.416C10.848 12.8 11.216 12.448 11.216 12L11.184 7.20001C11.184 6.75201 10.832 6.40001 10.384 6.40001H5.6C5.152 6.40001 4.8 6.75201 4.8 7.20001ZM12.8 7.20001L12.816 12C12.816 12.448 13.184 12.8 13.616 12.8H18.416C18.848 12.8 19.216 12.448 19.216 12L19.184 7.20001C19.184 6.75201 18.832 6.40001 18.384 6.40001H13.6C13.152 6.40001 12.8 6.75201 12.8 7.20001ZM6.4 4.00001C6.4 4.44801 6.752 4.80001 7.2 4.80001H16.8C17.248 4.80001 17.6 4.44801 17.6 4.00001C17.6 3.55201 17.248 3.20001 16.8 3.20001H7.2C6.752 3.20001 6.4 3.55201 6.4 4.00001Z" fill="black"/>
</svg>
