<svg width="13" height="20" viewBox="0 0 13 20" fill="none" xmlns="http://www.w3.org/2000/svg">
<path fill-rule="evenodd" clip-rule="evenodd" d="M4 11V19C4 19.2652 3.89464 19.5196 3.70711 19.7071C3.51957 19.8946 3.26522 20 3 20C2.73478 20 2.48043 19.8946 2.29289 19.7071C2.10536 19.5196 2 19.2652 2 19V11C1.46957 11 0.960859 10.7893 0.585786 10.4142C0.210714 10.0391 0 9.53043 0 9V2C0 1.46957 0.210714 0.960859 0.585786 0.585786C0.960859 0.210714 1.46957 0 2 0V6H4V0C4.53043 0 5.03914 0.210714 5.41421 0.585786C5.78929 0.960859 6 1.46957 6 2V9C6 9.53043 5.78929 10.0391 5.41421 10.4142C5.03914 10.7893 4.53043 11 4 11ZM13 2V19C13 19.2652 12.8946 19.5196 12.7071 19.7071C12.5196 19.8946 12.2652 20 12 20C11.7348 20 11.4804 19.8946 11.2929 19.7071C11.1054 19.5196 11 19.2652 11 19V13H10C9.46957 13 8.96086 12.7893 8.58579 12.4142C8.21071 12.0391 8 11.5304 8 11V2C8 1.46957 8.21071 0.960859 8.58579 0.585786C8.96086 0.210714 9.46957 0 10 0H11C11.5304 0 12.0391 0.210714 12.4142 0.585786C12.7893 0.960859 13 1.46957 13 2Z" fill="black"/>
</svg>
